Christina Aguilera - Back To Basics Live And Down Under 1080i AVCHD

This AVCHD was made by using the HD video and the audio from the dvd and edit them together. It can be play in any PS3 and in some blu-ray players.
Just burn the iso with imgburn.

Intro: "Back to Basics"
"Ain't No Other Man"
"Back in the Day"
"Understand"
"Makes Me Wanna Pray"
"Enter the Circus"
"Welcome"
"Candyman"
"Beautiful"
"Fighter"

Video 1920 x 1080i
Audio Dolby Digital 5.1 and PCM Stereo
Chapters

Video Source:  
http://thepiratebay.org/torrent/4192952/Christina_Aguilera-The_Back_to_Basics_Tour_SILUHD.COM

Audio source: 
http://thepiratebay.org/torrent/4024219/Christina_Aguilera_-_Back_To_Basics_Live_And_Down_Under_DVD_9

Mediinfo:
Format                           : BDAV
Format/Info                      : Blu-ray Video
File size                        : 3.90 GiB
Duration                         : 43mn 34s
Overall bit rate                 : 12.8 Mbps
Maximum Overall bit rate         : 35.5 Mbps

Video
ID                               : 4113 (0x1011)
Menu ID                          : 1 (0x1)
Format                           : AVC
Format/Info                      : Advanced Video Codec
Format profile                   : High@L4.1
Format settings, CABAC           : Yes
Format settings, ReFrames        : 2 frames
Duration                         : 43mn 34s
Bit rate mode                    : Constant
Bit rate                         : 10.3 Mbps
Nominal bit rate                 : 10 000 Kbps
Width                            : 1 920 pixels
Height                           : 1 080 pixels
Display aspect ratio             : 16:9
Frame rate                       : 29.970 fps
Standard                         : NTSC
Resolution                       : 8 bits
Colorimetry                      : 4:2:0
Scan type                        : Interlaced
Scan order                       : Top Field First
Bits/(Pixel*Frame)               : 0.166
Stream size                      : 3.13 GiB (80%)
Color primaries                  : BT.709-5, BT.1361, IEC 61966-2-4, SMPTE RP177
Transfer characteristics         : BT.709-5, BT.1361
Matrix coefficients              : BT.709-5, BT.1361, IEC 61966-2-4 709, SMPTE RP177

Audio #1
ID                               : 4352 (0x1100)
Menu ID                          : 1 (0x1)
Format                           : AC-3
Format/Info                      : Audio Coding 3
Format_Settings_ModeExtension    : CM (complete main)
Duration                         : 43mn 34s
Bit rate mode                    : Constant
Bit rate                         : 448 Kbps
Channel(s)                       : 6 channels
Channel positions                : Front: L C R, Side: L R, LFE
Sampling rate                    : 48.0 KHz
Stream size                      : 140 MiB (3%)
Language                         : English /  / 

Audio #2
ID                               : 4353 (0x1101)
Menu ID                          : 1 (0x1)
Format                           : PCM
Format settings, Endianness      : Big
Format settings, Sign            : Signed
Muxing mode                      : Blu-ray
Duration                         : 43mn 34s
Bit rate mode                    : Constant
Bit rate                         : 1 536 Kbps
Channel(s)                       : 2 channels
Channel positions                : Front: L R
Sampling rate                    : 48.0 KHz
Resolution                       : 16 bits
Stream size                      : 479 MiB (12%)
Language                         : English /  / 

